<svg width="170" height="110" viewBox="0 0 170 110" fill="none" xmlns="http://www.w3.org/2000/svg">
<path fill-rule="evenodd" clip-rule="evenodd" d="M120 0H150V10H160V40H170V70H160V100H150V110H120V100V90H110V100H100V110H70V100H60V90H50V100V110H20V100H10V70H0V40H10V10H20V0H50V10H120V0Z" fill="#FFF"/>
<rect x="50.0001" y="30.0001" width="10" height="30" fill="#EB5757"/>
<path fill-rule="evenodd" clip-rule="evenodd" d="M60 30H80V39.9999H100V40H110V80H100V89.9999H70.0001V70H60V30Z" fill="#ef596f"/>
<rect x="50.0001" y="60.0002" width="10" height="10" fill="#282c34"/>
<path fill-rule="evenodd" clip-rule="evenodd" d="M110 30.0001H90.0001V40.0001H110V60.0001H120V30.0001H110H110Z" fill="#ef596f"/>
<path fill-rule="evenodd" clip-rule="evenodd" d="M60.0001 30.0001H50.0001V60.0001H60.0001V30.0001ZM70 60.0002H60V70.0002H70V60.0002ZM80.0001 79.9999H89.9999V89.9999H79.9999V80.0001H70.0001V70.0001H80.0001V79.9999Z" fill="#BF2600"/>
<rect x="110" y="60.0002" width="10" height="10" fill="#282c34"/>
<path fill-rule="evenodd" clip-rule="evenodd" d="M79.9999 30V20H49.9999V30L79.9999 30ZM40 30.0001H50V60.0001H40V30.0001ZM50.0001 60.0002H60.0001V70.0001H70V80.0001H60V70.0002H50.0001V60.0002ZM100 70.0001H110V80.0001H100V89.9999H90.0001V79.9999H100V70.0001ZM79.9999 90.0001H89.9999V100H79.9999V90.0001ZM80.0001 79.9999H70.0001V89.9999H80.0001V79.9999ZM120 30.0001H130V60.0001H120V30.0001ZM120 20V30L90 30L90 20H120ZM90.0001 40.0001V30.0001H80.0001V40.0001H90.0001Z" fill="#282c34"/>
<path fill-rule="evenodd" clip-rule="evenodd" d="M130 10H140V20H130V10ZM150 50H140V20H150V50ZM150 60H160V50H150V60ZM140 90V60H150V90H140ZM140 90V100H130V90H140Z" fill="#282c34"/>
<path fill-rule="evenodd" clip-rule="evenodd" d="M40 10H30V20H40V10ZM20 50H30V20H20V50ZM20 60H10V50H20V60ZM30 90V60H20V90H30ZM30 90V100H40V90H30Z" fill="#282c34"/>
<rect x="50.0001" y="30.0001" width="10" height="30" fill="#EB5757"/>
<path fill-rule="evenodd" clip-rule="evenodd" d="M60 30H80V39.9999H100V40H110V80H100V89.9999H70.0001V70H60V30Z" fill="#ef596f"/>
<rect x="50.0001" y="60.0002" width="10" height="10" fill="#282c34"/>
<path fill-rule="evenodd" clip-rule="evenodd" d="M110 30.0001H90.0001V40.0001H110V60.0001H120V30.0001H110H110Z" fill="#ef596f"/>
<path fill-rule="evenodd" clip-rule="evenodd" d="M60.0001 30.0001H50.0001V60.0001H60.0001V30.0001ZM70 60.0002H60V70.0002H70V60.0002ZM80.0001 79.9999H89.9999V89.9999H79.9999V80.0001H70.0001V70.0001H80.0001V79.9999Z" fill="#BF2600"/>
<rect x="110" y="60.0002" width="10" height="10" fill="#282c34"/>
<path fill-rule="evenodd" clip-rule="evenodd" d="M79.9999 30V20H49.9999V30L79.9999 30ZM40 30.0001H50V60.0001H40V30.0001ZM50.0001 60.0002H60.0001V70.0001H70V80.0001H60V70.0002H50.0001V60.0002ZM100 70.0001H110V80.0001H100V89.9999H90.0001V79.9999H100V70.0001ZM79.9999 90.0001H89.9999V100H79.9999V90.0001ZM80.0001 79.9999H70.0001V89.9999H80.0001V79.9999ZM120 30.0001H130V60.0001H120V30.0001ZM120 20V30L90 30L90 20H120ZM90.0001 40.0001V30.0001H80.0001V40.0001H90.0001Z" fill="#282c34"/>
<path fill-rule="evenodd" clip-rule="evenodd" d="M130 10H140V20H130V10ZM150 50H140V20H150V50ZM150 60H160V50H150V60ZM140 90V60H150V90H140ZM140 90V100H130V90H140Z" fill="#282c34"/>
<path fill-rule="evenodd" clip-rule="evenodd" d="M40 10H30V20H40V10ZM20 50H30V20H20V50ZM20 60H10V50H20V60ZM30 90V60H20V90H30ZM30 90V100H40V90H30Z" fill="#282c34"/>
</svg>
