<svg width="52" height="46" viewBox="0 0 52 46" fill="none" xmlns="http://www.w3.org/2000/svg">
<rect x="5.75003" y="5.75006" width="5.75" height="17.25" fill="#EB5757"/>
<path fill-rule="evenodd" clip-rule="evenodd" d="M11.5 5.75H23V11.5H34.5V11.5H40.25V34.5H34.5V40.25H17.25V28.75H11.5V5.75Z" fill="#DE350B"/>
<rect x="5.75003" y="23.0001" width="5.75" height="5.75" fill="#111"/>
<path fill-rule="evenodd" clip-rule="evenodd" d="M46.0001 5.75006H40.2501V5.75008H28.7501V11.5001H40.2501V23.0001H46.0001V5.75006Z" fill="#FF5630"/>
<path fill-rule="evenodd" clip-rule="evenodd" d="M11.5 5.75006H5.75003V23.0001H11.5V5.75006ZM17.25 23.0001H11.5V28.7501H17.25V23.0001ZM23 34.5H28.75V40.25H23V34.5001H17.25V28.7501H23V34.5Z" fill="#BF2600"/>
<rect x="40.25" y="23.0001" width="5.75" height="5.75" fill="#111"/>
<path fill-rule="evenodd" clip-rule="evenodd" d="M23 5.75V0H5.74997L5.74997 5.75L23 5.75ZM0 5.75004H5.75V23H0V5.75004ZM5.75004 23.0001H11.5V28.7501H17.25V34.5001H11.5V28.7501H5.75004V23.0001ZM34.5 28.7501H40.25V34.5001H34.5001V40.25H28.7501V34.5H34.5V28.7501ZM23 40.25H28.75V46.0001H23V40.25ZM23 34.5H17.25V40.25H23V34.5ZM46 5.75004H51.75V23H46V5.75004ZM46 0V5.75L28.75 5.75V0H46ZM28.7501 11.5V5.75004L23.0001 5.75004V11.5L28.7501 11.5Z" fill="#111"/>
</svg>
